<svg width="132" height="132" viewBox="0 0 132 132" fill="none" xmlns="http://www.w3.org/2000/svg">
<path d="M87.9099 62.3822C89.913 63.3329 91.8727 64.262 93.8307 65.1945C94.6332 65.5768 94.9956 67.3025 94.4198 67.9793C93.959 68.521 93.376 68.3645 92.7916 67.483C91.849 67.8904 90.8921 68.3075 89.9324 68.7182C87.0904 69.9343 84.2501 71.1542 81.4017 72.3553C80.9915 72.5283 80.835 72.7599 80.7983 73.2143C80.708 74.3332 80.8134 75.4451 80.8132 76.5597C80.8128 79.327 80.7757 82.0943 80.754 84.8616C80.7517 85.1596 80.7537 85.4577 80.7537 85.7156C80.8302 85.7848 80.86 85.8358 80.8927 85.8377C81.4297 85.8682 81.8973 86.0351 81.9761 86.6347C82.0564 87.2464 81.576 87.4423 81.1221 87.6872C80.3178 88.1213 79.602 88.0867 78.7501 87.7113C74.7036 85.9281 70.6221 84.2244 66.5629 82.4697C66.1536 82.2928 65.8336 82.3513 65.4688 82.5223C65.0634 82.7123 64.6385 82.7988 64.27 82.4433C63.845 82.0334 63.9648 81.2945 64.5529 81.0631C65.0982 80.8486 65.2049 80.515 65.2025 79.9805C65.1846 76.0281 65.1959 72.0756 65.1963 68.1232C65.1963 67.9545 65.1783 67.7859 65.1692 67.627C64.8859 67.4846 64.6857 67.6581 64.4809 67.7453C61.064 69.2001 57.646 70.6523 54.2366 72.1245C52.8568 72.7203 53.1107 72.5122 53.1069 73.8552C53.0961 77.5929 53.1056 81.3306 53.107 85.0683C53.1071 85.3012 53.107 85.5341 53.107 85.7837C53.3215 85.8362 53.4842 85.8729 53.6451 85.9161C54.0165 86.0159 54.2393 86.2636 54.286 86.6388C54.3334 87.019 54.1574 87.3051 53.8253 87.488C52.9344 87.9783 52.1077 88.1941 51.0442 87.7191C46.8303 85.8369 42.5678 84.0635 38.3181 82.2618C37.7505 82.0211 37.4913 81.6414 37.4923 81.0257C37.5003 76.1495 37.501 71.2733 37.4926 66.3971C37.4916 65.8026 37.7531 65.4524 38.2818 65.2036C42.4008 63.2655 46.5075 61.3014 50.6324 59.376C51.1998 59.1112 51.407 58.7955 51.4031 58.1637C51.3757 53.6958 51.403 49.2275 51.3745 44.7596C51.3699 44.0487 51.629 43.6751 52.2547 43.3765C56.557 41.3237 60.8499 39.2507 65.1325 37.157C65.7909 36.8351 66.3401 36.8257 67.0098 37.1532C71.369 39.2856 75.7459 41.3819 80.1222 43.4794C80.5897 43.7035 80.8105 44.0288 80.7795 44.5421C80.7588 44.8848 80.7444 45.2288 80.75 45.5718C80.7575 46.0343 80.5887 46.3725 80.1238 46.4997C79.6836 46.6201 79.383 46.4027 79.154 46.0487C79.1087 45.9787 79.0611 45.9102 78.9964 45.814C78.5004 45.9185 78.0813 46.1869 77.6408 46.3924C74.2553 47.9716 70.8766 49.5654 67.4885 51.1389C67.1089 51.3151 66.9347 51.5256 66.9362 51.9618C66.9505 56.0216 66.945 60.0816 66.9475 64.1415C66.9475 64.287 66.9119 64.4439 67.0633 64.6102C67.4088 64.593 67.7159 64.3795 68.0339 64.2297C71.5104 62.5909 74.9789 60.9349 78.4576 59.3008C78.8987 59.0936 79.125 58.8438 79.1094 58.3275C79.0912 57.7263 79.4225 57.4044 79.9358 57.4033C80.4314 57.4022 80.7529 57.7362 80.7379 58.3516C80.7262 58.8332 80.9124 59.0869 81.3405 59.2854C83.5222 60.2968 85.6919 61.3339 87.9099 62.3822ZM75.6619 43.2616C72.682 41.8282 69.6982 40.4026 66.7262 38.9527C66.2809 38.7355 65.9189 38.7104 65.4601 38.9352C62.4523 40.4087 59.4296 41.852 56.4126 43.307C55.7425 43.6302 55.076 43.9607 54.3709 44.306C54.469 44.3938 54.507 44.447 54.5587 44.4713C58.2899 46.2245 62.0236 47.9727 65.752 49.7318C66.0493 49.8721 66.284 49.7873 66.5426 49.6659C70.1191 47.9872 73.6973 46.3124 77.2722 44.6305C77.4299 44.5563 77.6559 44.5442 77.7088 44.2684C77.0551 43.9478 76.4012 43.627 75.6619 43.2616ZM73.097 63.7593C71.516 64.5109 69.9349 65.2626 68.3443 66.0187C68.476 66.2377 68.6543 66.274 68.8069 66.3392C72.3379 67.8496 75.8724 69.3519 79.4004 70.8693C79.791 71.0373 80.1296 71.0126 80.5087 70.8493C83.4252 69.5934 86.3471 68.3503 89.2667 67.1016C90.0089 66.7841 90.7488 66.461 91.56 66.11C91.4052 65.9981 91.3438 65.9377 91.2702 65.9029C87.6236 64.1777 83.9747 62.4574 80.3308 60.7266C79.9978 60.5684 79.7156 60.6342 79.4123 60.7779C77.3378 61.7611 75.2611 62.7398 73.097 63.7593ZM61.6031 67.074C62.3273 66.7663 63.0514 66.4585 63.7924 66.1436C63.6105 65.8546 63.3659 65.8072 63.1588 65.7089C59.8033 64.1167 56.438 62.5447 53.0958 60.9251C52.4683 60.621 51.9622 60.6285 51.3452 60.9264C47.9813 62.5504 44.6 64.1385 41.2265 65.7426C41.0291 65.8364 40.8034 65.9052 40.6557 66.1163C40.7576 66.1726 40.8111 66.2085 40.8694 66.2334C44.4808 67.7796 48.0948 69.3195 51.7012 70.8774C52.1239 71.06 52.4836 70.9892 52.8722 70.8218C55.7506 69.5816 58.6316 68.3473 61.6031 67.074ZM43.6089 92.3414C43.6525 93.2654 43.628 94.1213 43.1995 94.907C43.0523 95.177 43.1559 95.3441 43.3744 95.5025C43.7218 95.7543 44.0676 96.0095 44.4004 96.2801C44.81 96.6131 44.8966 97.0259 44.6049 97.4754C44.3336 97.8937 43.7738 98.0229 43.3719 97.6423C42.463 96.7815 41.6374 96.6561 40.3898 97.1496C38.6691 97.8303 37.0228 97.2065 35.8324 95.7735C34.6287 94.3245 34.4142 92.6653 35.2763 90.9664C35.5614 90.4045 35.5119 90.0262 35.1173 89.5936C34.8732 89.3259 34.6623 89.0205 34.4777 88.7077C34.2302 88.2881 34.2629 87.8593 34.662 87.5555C35.0889 87.2306 35.6082 87.2797 35.8429 87.73C36.4637 88.9211 37.242 88.9304 38.4748 88.6072C40.8525 87.984 43.094 89.7107 43.6089 92.3414ZM36.6432 93.7215C36.7323 94.0357 36.888 94.3168 37.0828 94.5753C37.7988 95.5254 39.0949 95.8847 40.2022 95.4439C41.2752 95.0168 42.0534 93.8145 41.9412 92.7574C41.7652 91.0988 40.3696 90.026 38.7212 90.282C37.212 90.5164 36.2631 92.0201 36.6432 93.7215ZM89.7981 96.0852C87.3081 93.464 88.6138 89.301 92.0459 88.5883C93.017 88.3866 93.9762 88.4984 94.8671 88.9467C95.1896 89.109 95.3689 89.0543 95.5609 88.7761C95.8044 88.4234 96.0627 88.0782 96.3429 87.7542C96.6896 87.3535 97.1274 87.2863 97.5425 87.6155C97.9578 87.9449 98.0371 88.4269 97.6699 88.8055C96.8005 89.7019 96.6579 90.5288 97.1594 91.7845C97.8852 93.6015 96.9384 95.6594 95.2988 96.689C93.564 97.7783 91.555 97.5686 89.7981 96.0852ZM90.4675 94.0343C90.5662 94.1998 90.6488 94.3778 90.7663 94.5287C91.4634 95.4246 92.3914 95.7957 93.4937 95.5709C94.545 95.3565 95.2607 94.6841 95.5324 93.6425C95.8084 92.585 95.5353 91.6474 94.702 90.9046C93.7999 90.1005 92.4549 90.018 91.4215 90.6999C90.375 91.3904 89.9952 92.6271 90.4675 94.0343ZM43.9565 34.3774C44.4277 34.4112 44.6859 34.6328 44.76 35.0444C44.8319 35.4443 44.703 35.7944 44.3414 35.9758C43.2963 36.5 43.1674 37.1529 43.5138 38.3157C44.2015 40.6241 42.5319 43.0395 40.1459 43.5566C37.7864 44.068 35.4189 42.5613 34.9021 40.2194C34.3709 37.8123 35.8369 35.4583 38.2004 34.899C39.3223 34.6335 40.3912 34.7923 41.369 35.3551C41.8111 35.6096 42.0742 35.5383 42.4419 35.2602C42.8938 34.9184 43.2751 34.4348 43.9565 34.3774ZM40.961 41.292C41.9893 40.278 42.2242 39.0312 41.5969 37.9155C41.0011 36.8556 39.7034 36.283 38.5839 36.5919C37.4365 36.9085 36.7292 37.6658 36.5478 38.8278C36.3687 39.9745 36.831 40.9047 37.816 41.5033C38.8498 42.1317 39.8954 42.0496 40.961 41.292ZM94.5982 43.3356C92.798 43.9216 91.1855 43.6945 89.8455 42.3825C88.5719 41.1357 88.2208 39.5951 88.7052 37.8877C89.2278 36.0459 91.1037 34.7145 93.0352 34.7722C95.046 34.8322 96.7499 36.2038 97.2312 38.1498C97.7149 40.1053 96.8462 42.1285 95.1072 43.0905C94.9574 43.1734 94.7996 43.2419 94.5982 43.3356ZM92.1163 41.7962C94.4489 42.4206 96.0887 40.3363 95.514 38.4413C95.1396 37.2066 93.9946 36.4403 92.7149 36.5252C91.5627 36.6017 90.4887 37.5515 90.286 38.6732C90.0386 40.0427 90.6847 41.1931 92.1163 41.7962ZM82.4432 101.419C81.4614 101.833 81.0013 101.761 80.7535 101.185C80.5255 100.654 80.7815 100.291 81.6897 99.8468C82.266 99.565 82.8383 99.275 83.4152 98.9945C83.9035 98.757 84.343 98.8027 84.6407 99.2939C84.9021 99.7254 84.7221 100.255 84.2099 100.536C83.6479 100.845 83.063 101.112 82.4432 101.419ZM88.0489 96.1519C88.5627 96.028 88.9618 96.1197 89.1657 96.5929C89.3829 97.0969 89.1329 97.4663 88.7329 97.744C88.0831 98.1952 87.4311 98.6449 86.7596 99.0624C86.2272 99.3934 85.7467 99.2953 85.4867 98.8369C85.202 98.3347 85.3615 97.9298 85.8141 97.624C86.5405 97.1333 87.2735 96.6524 88.0489 96.1519ZM33.8637 86.8772C33.4007 86.9169 33.1172 86.6952 32.9238 86.3679C32.4994 85.6498 32.0773 84.929 31.6928 84.1892C31.4314 83.6862 31.5838 83.1885 32.0265 82.9821C32.5477 82.7392 32.9393 82.9344 33.2115 83.4075C33.6064 84.0937 34.0032 84.7792 34.3816 85.4745C34.7407 86.1343 34.6136 86.4848 33.8637 86.8772ZM55.4619 103.512C54.9808 103.227 54.7506 102.864 54.9689 102.362C55.2023 101.825 55.6464 101.786 56.158 101.92C56.8823 102.11 57.6134 102.274 58.3411 102.451C58.9208 102.592 59.254 103.026 59.1493 103.497C59.0343 104.015 58.566 104.276 57.9393 104.133C57.1257 103.948 56.3186 103.734 55.4619 103.512ZM100.618 83.6967C100.373 84.8614 99.7086 85.7646 99.0577 86.6628C98.8038 87.013 98.3813 87.0105 98.0114 86.7603C97.6351 86.5059 97.5287 86.1032 97.7127 85.7367C98.1359 84.8942 98.5841 84.0563 99.1103 83.2761C99.5419 82.6362 100.308 82.8535 100.618 83.6967ZM45.8574 97.6593C46.1461 97.5706 46.3727 97.6181 46.5858 97.739C47.2951 98.1416 48.0093 98.5359 48.7084 98.9554C49.1559 99.224 49.4091 99.6024 49.15 100.14C48.9255 100.606 48.4379 100.743 47.8794 100.456C47.1742 100.092 46.4788 99.7049 45.8052 99.286C45.0511 98.817 45.0671 98.1917 45.8574 97.6593ZM28.0741 61.45C27.6888 61.1972 27.5672 60.8855 27.6397 60.4831C27.7873 59.6644 27.907 58.8401 28.0733 58.0253C28.19 57.4534 28.5983 57.1681 29.0732 57.2597C29.5715 57.3557 29.8579 57.8228 29.7551 58.38C29.6158 59.135 29.4819 59.8912 29.3288 60.6434C29.1719 61.4147 28.9215 61.5788 28.0741 61.45ZM45.3375 33.8774C45.2917 33.4408 45.4463 33.1522 45.7717 32.9619C46.4928 32.5401 47.2078 32.1062 47.9462 31.7168C48.4644 31.4436 49.0115 31.6121 49.2018 32.0749C49.4178 32.6004 49.2071 32.987 48.7345 33.2546C48.0447 33.6452 47.36 34.0452 46.6628 34.4221C46.0534 34.7515 45.6613 34.5958 45.3375 33.8774ZM31.9449 47.634C32.3781 47.3056 32.7829 47.2948 33.1388 47.6422C33.4984 47.9933 33.4431 48.3816 33.2107 48.8085C32.8642 49.445 32.5753 50.1126 32.2556 50.7639C31.9546 51.3772 31.5123 51.5917 31.0402 51.3642C30.549 51.1275 30.4137 50.6715 30.6851 50.0588C31.0477 49.24 31.401 48.415 31.9449 47.634ZM33.2608 45.272C33.7083 44.6145 34.1167 43.9875 34.5557 43.3827C34.9324 42.8638 35.3984 42.7649 35.8195 43.0697C36.2295 43.3665 36.2894 43.8654 35.9564 44.3715C35.5572 44.9782 35.1424 45.5746 34.7374 46.1775C34.3395 46.7698 33.9199 46.9437 33.4744 46.6953C32.998 46.4295 32.9162 45.9568 33.2608 45.272ZM102.41 80.0903C102.178 80.6527 101.983 81.1772 101.742 81.6797C101.525 82.1322 101.155 82.3964 100.643 82.1915C100.104 81.9761 100.002 81.5142 100.182 81.0128C100.465 80.2253 100.776 79.4474 101.1 78.6758C101.301 78.1975 101.687 77.9586 102.19 78.1586C102.7 78.3614 102.878 78.778 102.69 79.3164C102.605 79.5596 102.515 79.8008 102.41 80.0903ZM94.0223 79.1946C94.9695 79.6798 94.5929 80.5215 94.639 81.2242C94.6748 81.7698 94.3068 82.0705 93.8265 82.2528C93.5263 82.3668 93.2407 82.5251 92.9344 82.6158C92.4628 82.7555 92.0023 82.7132 91.8033 82.1882C91.6133 81.6872 91.7444 81.2285 92.2862 81.03C92.766 80.8542 92.9185 80.5629 92.92 80.0624C92.9219 79.4145 93.2543 79.1763 94.0223 79.1946ZM83.5416 33.2705C82.8021 32.9141 82.1058 32.5817 81.4144 32.2393C80.8048 31.9374 80.5974 31.4962 80.8212 31.0085C81.0386 30.5349 81.5339 30.3973 82.1418 30.6792C82.8416 31.0038 83.5296 31.3538 84.2192 31.6999C84.6773 31.9298 84.9209 32.2996 84.7313 32.8023C84.5342 33.3248 84.1246 33.4932 83.5416 33.2705ZM55.7305 28.6232C56.4222 28.4489 57.0646 28.2861 57.7098 28.1354C57.8956 28.0919 58.0889 28.0706 58.2798 28.0609C58.7528 28.037 59.0738 28.2677 59.175 28.7195C59.2797 29.187 59.0389 29.5455 58.6073 29.6693C57.7248 29.9224 56.8289 30.1362 55.9287 30.3172C55.4483 30.4137 55.0665 30.1791 54.966 29.6846C54.8526 29.1266 55.1719 28.8024 55.7305 28.6232ZM65.353 104.363C65.3623 103.563 65.603 103.285 66.32 103.255C67.1346 103.221 67.9506 103.221 68.7661 103.213C69.2723 103.207 69.5924 103.454 69.6356 103.963C69.6783 104.468 69.4076 104.786 68.9171 104.872C67.96 105.04 66.9916 104.981 66.0276 104.958C65.6977 104.951 65.4971 104.706 65.353 104.363ZM103.022 61.164C102.814 60.1762 102.609 59.2352 102.461 58.2855C102.386 57.8032 102.63 57.438 103.128 57.3417C103.617 57.2474 103.98 57.4587 104.111 57.9492C104.336 58.7975 104.485 59.6624 104.581 60.5348C104.626 60.9445 104.535 61.3103 104.123 61.5091C103.681 61.7227 103.338 61.5545 103.022 61.164ZM98.2557 46.8196C97.9368 46.7543 97.7543 46.584 97.6056 46.3624C97.1636 45.7036 96.7121 45.0511 96.2749 44.3892C95.9352 43.8749 95.9937 43.3754 96.433 43.0989C96.9227 42.7907 97.3413 42.9265 97.657 43.3785C98.1233 44.0462 98.6015 44.7086 99.0185 45.4067C99.4494 46.128 99.1541 46.671 98.2557 46.8196ZM53.1006 100.929C53.3056 101.012 53.4707 101.064 53.6212 101.144C54.0569 101.375 54.1465 101.772 54.008 102.19C53.8616 102.632 53.4781 102.854 53.0375 102.722C52.1135 102.446 51.2119 102.092 50.3564 101.643C49.8961 101.402 49.8403 100.956 50.0408 100.527C50.259 100.061 50.6953 99.9879 51.1421 100.149C51.7873 100.381 52.4175 100.655 53.1006 100.929ZM75.9993 102.058C76.9464 101.58 77.9282 101.341 78.8877 101.046C79.3525 100.903 79.745 101.126 79.903 101.606C80.0657 102.1 79.8287 102.475 79.385 102.642C78.544 102.96 77.6824 103.226 76.824 103.496C76.4526 103.613 76.1374 103.461 75.9191 103.162C75.6603 102.808 75.695 102.44 75.9993 102.058ZM27.4895 70.5745C27.417 69.9426 27.3324 69.3677 27.3059 68.7901C27.2779 68.181 27.6215 67.7894 28.1354 67.7677C28.6561 67.7457 28.9823 68.0982 29.0422 68.7213C29.1119 69.446 29.1896 70.1701 29.2764 70.8929C29.3554 71.5515 29.0454 72.0304 28.4905 72.0782C27.9824 72.1219 27.6116 71.7302 27.5454 71.0788C27.5302 70.9295 27.5171 70.7799 27.4895 70.5745ZM29.5756 79.4248C29.4025 78.6195 29.5434 78.2486 30.0397 78.1051C30.5505 77.9574 30.9388 78.2014 31.1963 78.8434C31.4752 79.5389 31.7389 80.2405 32.0243 80.9333C32.2428 81.4635 32.0925 81.8645 31.6076 82.1225C31.1797 82.3501 30.7056 82.1497 30.4647 81.6159C30.148 80.9143 29.8814 80.1901 29.5756 79.4248ZM69.1106 28.9918C68.0711 29.1189 67.0944 28.9106 66.1097 28.9051C65.6619 28.9026 65.4042 28.5689 65.3682 28.1516C65.3318 27.7307 65.5449 27.3545 65.9781 27.2881C67.0199 27.1284 68.0656 27.2513 69.1011 27.3946C69.4147 27.438 69.6109 27.6873 69.6571 28.025C69.7169 28.4613 69.555 28.7758 69.1106 28.9918ZM28.5354 76.11C28.3663 75.4175 28.1861 74.779 28.0703 74.1291C27.9586 73.5016 28.2192 73.0919 28.7163 72.9869C29.1989 72.8849 29.5897 73.1827 29.747 73.7972C29.9267 74.4995 30.0886 75.2063 30.2601 75.9107C30.4299 76.6078 30.2362 77.0688 29.7096 77.2142C29.2164 77.3504 28.8201 77.0613 28.6102 76.4087C28.5841 76.3277 28.5713 76.2424 28.5354 76.11ZM61.2304 29.2793C60.4832 29.2475 60.1147 28.9543 60.1109 28.439C60.1071 27.9377 60.4575 27.619 61.0905 27.5467C61.7917 27.4665 62.4916 27.3711 63.1944 27.3089C63.9435 27.2426 64.3697 27.5491 64.3978 28.1345C64.4244 28.6884 64.0464 28.9926 63.3266 29.0501C62.645 29.1045 61.9664 29.1972 61.2304 29.2793ZM50.1038 31.7109C49.8405 31.1031 50.0271 30.6946 50.5643 30.4648C51.3114 30.1451 52.0658 29.8397 52.8306 29.5656C53.4409 29.3468 53.8819 29.535 54.0536 30.0226C54.228 30.5179 54.0103 30.9248 53.4193 31.1664C52.7065 31.4578 51.9844 31.7268 51.2727 32.0208C50.8196 32.2079 50.4392 32.1553 50.1038 31.7109ZM99.5409 49.8517C99.3277 49.4242 99.1296 49.0428 98.9481 48.6536C98.7167 48.1573 98.8753 47.7524 99.3295 47.5075C99.7796 47.2648 100.198 47.4338 100.435 47.8512C100.891 48.6531 101.319 49.4734 101.642 50.341C101.824 50.8295 101.632 51.1979 101.184 51.3974C100.757 51.5876 100.37 51.4622 100.133 51.0493C99.9203 50.6774 99.7516 50.2803 99.5409 49.8517ZM27.6389 62.6854C28.5216 62.3007 29.0487 62.6189 29.0346 63.5099C29.0211 64.3666 28.9649 65.2232 28.9038 66.0782C28.8738 66.4968 28.5928 66.7323 28.1957 66.7968C27.7823 66.8639 27.3782 66.6666 27.335 66.2929C27.1962 65.094 27.0627 63.8764 27.6389 62.6854ZM28.8762 54.8202C29.1155 54.1222 29.3156 53.4651 29.5705 52.83C29.7938 52.2734 30.2434 52.0583 30.682 52.2532C31.2035 52.4849 31.3355 52.8961 31.1653 53.4209C30.934 54.1336 30.7014 54.846 30.4652 55.5571C30.2349 56.2503 29.8372 56.5134 29.2923 56.3403C28.8191 56.19 28.6473 55.7241 28.819 55.059C28.835 54.9967 28.8469 54.9334 28.8762 54.8202ZM103.81 75.6812C103.704 76.062 103.638 76.4029 103.507 76.7167C103.315 77.1754 102.928 77.366 102.459 77.2223C101.992 77.079 101.776 76.7212 101.891 76.2207C102.083 75.3873 102.272 74.5525 102.489 73.7257C102.632 73.1863 103.073 72.9246 103.565 73.076C104.078 73.2335 104.266 73.6171 104.165 74.1286C104.066 74.6319 103.936 75.1293 103.81 75.6812ZM73.9753 102.452C74.5683 102.494 74.8703 102.812 74.8675 103.325C74.8648 103.816 74.5246 104.096 74.0539 104.181C73.2542 104.326 72.4537 104.469 71.6488 104.579C71.1201 104.651 70.7074 104.463 70.611 103.878C70.5256 103.36 70.8281 103.001 71.4565 102.881C72.2755 102.726 73.0993 102.594 73.9753 102.452ZM71.4501 27.6182C72.3669 27.7635 73.2353 27.897 74.0964 28.067C74.6822 28.1827 75.006 28.6353 74.8973 29.1082C74.7841 29.6005 74.3466 29.8396 73.7381 29.7313C72.9792 29.5963 72.224 29.4391 71.4628 29.3197C70.9671 29.2419 70.6612 28.9733 70.6298 28.4909C70.5968 27.9852 70.9135 27.7099 71.4501 27.6182ZM78.5263 31.0785C77.8452 30.8586 77.2143 30.6542 76.5827 30.4523C75.9636 30.2544 75.6602 29.8031 75.8237 29.3189C75.9939 28.8145 76.452 28.6165 77.086 28.8063C77.7622 29.0088 78.434 29.2277 79.1013 29.458C79.8405 29.7132 80.1103 30.1246 79.9264 30.6696C79.7612 31.1587 79.2932 31.3062 78.5263 31.0785ZM87.6019 35.7879C87.0108 35.392 86.4558 35.0295 85.9085 34.6556C85.4181 34.3207 85.2744 33.8197 85.5302 33.3891C85.7913 32.9494 86.2675 32.8578 86.814 33.1938C87.4329 33.5743 88.0338 33.9849 88.631 34.3992C89.2595 34.8352 89.422 35.3405 89.1052 35.7903C88.7871 36.2417 88.3006 36.2505 87.6019 35.7879ZM103.215 64.203C103.214 63.8624 103.205 63.5842 103.217 63.3069C103.236 62.8514 103.512 62.5993 103.933 62.5337C104.371 62.4656 104.713 62.6733 104.818 63.0961C105.073 64.1246 105.005 65.1791 104.928 66.22C104.9 66.5951 104.558 66.8358 104.141 66.8417C103.69 66.8481 103.419 66.6025 103.317 66.1808C103.166 65.5506 103.258 64.904 103.215 64.203ZM103.206 68.7075C103.354 68.0326 103.731 67.6886 104.191 67.8035C104.735 67.9395 104.938 68.3383 104.892 68.8731C104.829 69.6187 104.774 70.3659 104.679 71.1078C104.586 71.8416 104.233 72.1617 103.668 72.0919C103.148 72.0274 102.908 71.6627 102.965 70.9283C103.022 70.2046 103.122 69.4843 103.206 68.7075ZM102.214 52.32C102.525 52.4868 102.639 52.7445 102.726 53.0098C102.981 53.7822 103.237 54.5547 103.469 55.3343C103.614 55.8234 103.398 56.1875 102.944 56.3651C102.467 56.552 102.063 56.3564 101.892 55.9016C101.569 55.0407 101.269 54.1659 101.044 53.2755C100.864 52.5602 101.364 52.1643 102.214 52.32ZM64.2026 103.529C64.5284 104.456 64.1958 104.918 63.2964 104.877C62.4617 104.839 61.6257 104.795 60.8087 104.611C60.2671 104.489 59.9553 104.037 60.0731 103.588C60.1611 103.252 60.378 102.972 60.7337 102.974C61.8028 102.98 62.8687 103.067 63.9165 103.296C64.0107 103.317 64.0866 103.421 64.2026 103.529Z" fill="#051936"/>
<path d="M92.957 69.715C93.1644 69.2401 93.4848 69.0191 93.9458 69.1256C94.4281 69.2371 94.6417 69.5962 94.6473 70.0736C94.656 70.8213 94.6648 71.5696 94.6451 72.3169C94.6293 72.9147 94.2614 73.3129 93.7769 73.3138C93.2705 73.3148 92.9173 72.9403 92.9104 72.3286C92.9007 71.475 92.9273 70.621 92.957 69.715ZM60.4902 82.7777C61.0859 82.5204 61.6314 82.2682 62.1913 82.0537C62.7244 81.8495 63.1732 82.0333 63.3596 82.5065C63.5638 83.0247 63.3437 83.3983 62.8857 83.6152C62.2084 83.9359 61.5133 84.2203 60.8193 84.5041C60.1845 84.7637 59.7262 84.6224 59.5152 84.1278C59.3071 83.64 59.5345 83.2108 60.1517 82.9281C60.2491 82.8835 60.3481 82.8422 60.4902 82.7777ZM93.0061 77.8483C92.8191 76.8429 92.9024 75.8795 92.9272 74.9208C92.9399 74.4288 93.2838 74.1339 93.7752 74.1302C94.2394 74.1267 94.585 74.419 94.6094 74.8667C94.6595 75.783 94.6494 76.7051 94.6092 77.6224C94.5933 77.9841 94.3184 78.2394 93.9468 78.3218C93.541 78.4118 93.2414 78.2411 93.0061 77.8483ZM90.8144 83.4645C89.9879 83.9342 89.1478 84.2593 88.3086 84.581C87.8129 84.771 87.4095 84.59 87.2027 84.1011C86.9997 83.6212 87.2184 83.2365 87.6403 83.0277C88.3503 82.6762 89.0909 82.3867 89.817 82.0674C90.2369 81.8828 90.6274 81.9116 90.9214 82.2801C91.2307 82.668 91.2167 83.0687 90.8144 83.4645ZM83.5005 84.7771C84.1155 84.5156 84.6813 84.2626 85.2545 84.0277C85.7499 83.8248 86.193 83.8872 86.4617 84.397C86.7005 84.8502 86.4941 85.3501 85.9524 85.6054C85.2958 85.9148 84.6247 86.1948 83.9524 86.4694C83.3399 86.7196 82.8496 86.563 82.6485 86.0806C82.4469 85.5968 82.6666 85.1751 83.279 84.8721C83.3364 84.8437 83.396 84.8197 83.5005 84.7771ZM54.8867 85.6254C54.9762 85.2296 55.2158 85.0295 55.5249 84.8964C56.1944 84.6081 56.8629 84.3175 57.5351 84.0357C58.0331 83.8269 58.477 83.8883 58.7504 84.394C59.0071 84.8689 58.7812 85.3597 58.1886 85.6332C57.5465 85.9295 56.8982 86.2151 56.24 86.4729C55.4576 86.7794 55.0252 86.5135 54.8867 85.6254ZM80.7462 50.6157C80.7426 51.2568 80.4144 51.5785 79.8691 51.547C79.3539 51.5173 79.0934 51.154 79.0974 50.6202C79.1033 49.829 79.0853 49.0375 79.102 48.2466C79.1143 47.6643 79.4515 47.3103 79.956 47.3485C80.4921 47.3892 80.7493 47.7121 80.7481 48.2469C80.7465 49.0168 80.7471 49.7867 80.7462 50.6157ZM80.7458 55.2799C80.742 55.513 80.7534 55.6865 80.7313 55.8556C80.6682 56.3401 80.3497 56.5837 79.8944 56.5742C79.4638 56.5653 79.1388 56.3008 79.1222 55.8582C79.0878 54.9375 79.0867 54.0137 79.1216 53.093C79.14 52.608 79.486 52.3757 79.9579 52.3946C80.4304 52.4135 80.7261 52.6705 80.7386 53.1595C80.7562 53.8454 80.7448 54.5321 80.7458 55.2799Z" fill="#051936"/>
</svg>
