<svg width="132" height="132" viewBox="0 0 132 132" fill="none" xmlns="http://www.w3.org/2000/svg">
<path d="M79.0195 23.4609H68.707V26.0391H79.0195V23.4609Z" fill="#051936"/>
<path d="M87.2695 23.4609H83.1445V26.0391H87.2695V23.4609Z" fill="#051936"/>
<path d="M60.457 105.961H56.332V108.539H60.457V105.961Z" fill="#051936"/>
<path d="M41.0574 38.3623C33.7059 45.7138 29.6582 55.4875 29.6582 65.8838C29.6582 76.2801 33.7071 86.0537 41.0574 93.4053L42.8801 91.5825C36.0159 84.7183 32.235 75.5917 32.235 65.8838C32.235 56.1759 36.0159 47.0493 42.8801 40.185L41.0574 38.3623Z" fill="#051936"/>
<path d="M34.5933 31.8489L32.7705 30.0261C27.9301 34.8666 24.1828 40.5101 21.6318 46.802C19.1671 52.8773 17.918 59.2982 17.918 65.8827C17.918 72.4672 19.1671 78.888 21.6318 84.9647C24.1828 91.2553 27.9314 96.9001 32.7705 101.741L34.5933 99.9178C15.8271 81.1516 15.8271 50.615 34.5933 31.8489ZM96.5173 38.3625L94.6945 40.1852C101.559 47.0495 105.34 56.176 105.34 65.884C105.34 75.5919 101.559 84.7172 94.6945 91.5814L96.5173 93.4042C103.869 86.0527 107.916 76.279 107.916 65.8827C107.916 55.4864 103.869 45.7127 96.5173 38.3625Z" fill="#051936"/>
<path d="M115.943 46.8022C113.392 40.5116 109.643 34.8668 104.804 30.0264L102.981 31.8491C121.747 50.6153 121.747 81.1506 102.981 99.918L104.804 101.741C109.644 96.9004 113.392 91.2568 115.943 84.9649C118.406 78.8896 119.656 72.4688 119.656 65.8829C119.656 59.2971 118.407 52.8776 115.943 46.8022ZM59.3052 65.0889L57.4824 66.9116L63.6699 73.0991C63.9213 73.3505 64.2513 73.4768 64.5813 73.4768C64.9113 73.4768 65.2413 73.3505 65.4927 73.0991L79.9302 58.6616L78.1074 56.8389L64.5813 70.365L59.3052 65.0889Z" fill="#051936"/>
<path d="M91.3945 46.1484C84.8667 46.1484 78.5155 44.2832 73.0241 40.755C72.0418 40.1259 71.0789 39.4337 70.1624 38.7002L69.5127 38.1807C69.0422 37.8043 68.3732 37.8043 67.9027 38.1807L66.9397 38.9477C66.3829 39.3822 65.8247 39.7908 65.2794 40.1646C62.8031 41.8687 60.109 43.2364 57.2705 44.2329C56.3759 44.5474 55.4464 44.8297 54.508 45.0721C51.7365 45.7862 48.8812 46.1484 46.0195 46.1484C45.308 46.1484 44.7305 46.7259 44.7305 47.4375V66.0193C44.7305 68.2159 45.0128 70.4022 45.5696 72.5136C46.0298 74.2706 46.6834 75.9877 47.511 77.6144C48.1504 78.87 48.8954 80.0779 49.7256 81.2019C51.9531 84.2248 54.7581 86.6714 58.0594 88.4735L68.0896 93.9443C68.2816 94.0487 68.4943 94.1016 68.707 94.1016C68.9197 94.1016 69.1324 94.0487 69.3245 93.9443L79.3547 88.4735C82.6547 86.674 85.4597 84.2273 87.6898 81.2019C89.6221 78.5812 91.0194 75.6577 91.8444 72.5149C92.4013 70.3996 92.6836 68.2146 92.6836 66.018V47.4375C92.6836 46.7259 92.1061 46.1484 91.3945 46.1484ZM90.1055 66.0193C90.1055 67.9942 89.8515 69.9587 89.3514 71.8601C88.6089 74.687 87.352 77.3154 85.6144 79.6718C83.6086 82.3917 81.0872 84.5909 78.1198 86.2099L68.707 91.3443L59.2943 86.2099C56.3256 84.5896 53.8042 82.3904 51.7997 79.6705C51.052 78.6599 50.383 77.5745 49.8081 76.4453C49.063 74.9822 48.4765 73.4392 48.0627 71.8588C47.5625 69.96 47.3086 67.9942 47.3086 66.0193V48.7034C49.9538 48.6105 52.586 48.229 55.1512 47.5677C56.1606 47.3073 57.1622 47.0031 58.1238 46.6641C61.1763 45.5929 64.0754 44.1207 66.7386 42.289C67.3264 41.8855 67.9284 41.4447 68.5278 40.978C68.5317 40.9754 68.5343 40.9728 68.5382 40.9703L68.707 40.8362C69.6468 41.58 70.6303 42.2825 71.6319 42.9245C77.1762 46.4875 83.539 48.4739 90.1068 48.7034V66.0193H90.1055Z" fill="#051936"/>
</svg>
