<svg width="144" height="144" viewBox="0 0 144 144" fill="none" xmlns="http://www.w3.org/2000/svg">
<path d="M66.3256 90.9214C68.5851 85.7821 69.5065 80.1545 69.004 74.563C68.7809 70.8819 67.4226 67.3604 65.116 64.483C63.1642 62.1452 60.7527 60.2337 58.0312 58.867C54.8237 57.2625 51.4412 56.0352 47.9512 55.2094C40.2555 53.3248 32.6656 51.0319 25.2136 48.3406C23.8966 47.8751 22.5554 47.4809 21.196 47.1598C19.5727 46.7 17.8741 46.5678 16.1992 46.771C15.5414 46.8333 14.904 47.0324 14.3278 47.3557C13.7516 47.679 13.2494 48.1192 12.8534 48.648C12.4574 49.1769 12.1764 49.7828 12.0285 50.4267C11.8806 51.0706 11.8689 51.7383 11.9944 52.387C12.294 54.1756 12.9929 55.8737 14.0392 57.355C14.2552 57.7006 14.4856 58.0318 14.716 58.3918C14.5978 58.5279 14.4677 58.6532 14.3272 58.7662C13.593 59.2316 13.0016 59.8906 12.6179 60.6706C12.2343 61.4506 12.0733 62.3214 12.1528 63.187C12.2577 64.7972 12.795 66.3493 13.708 67.6798C14.7073 69.2424 15.9634 70.6251 17.4232 71.7694L18.532 72.7054C18.0256 74.2224 17.9214 75.8448 18.2296 77.4142C18.7328 79.7707 20.0477 81.8756 21.9448 83.3614C24.4248 85.3302 27.2326 86.8463 30.2392 87.8398C33.0472 88.8766 35.8984 89.8126 38.7208 90.8062C39.1384 90.9502 39.5416 91.123 40.1608 91.3534L39.2104 92.3038C38.8127 92.6604 38.4466 93.0506 38.116 93.4702C37.9054 93.7137 37.7582 94.0054 37.6873 94.3195C37.6163 94.6335 37.6239 94.9602 37.7094 95.2706C37.7948 95.581 37.9554 95.8655 38.1771 96.0991C38.3987 96.3326 38.6745 96.5078 38.98 96.6094C39.3989 96.7757 39.8329 96.9011 40.276 96.9838C44.0199 97.6535 47.8759 97.2798 51.4216 95.9038L53.0056 95.3278L53.2072 95.5582C52.948 96.2062 52.6888 96.8398 52.444 97.4878C51.8536 99.0862 52.7032 100.238 54.4024 100.051C57.3332 99.7991 60.1028 98.6013 62.2936 96.6382C64.0341 95.0456 65.4095 93.0954 66.3256 90.9214ZM55.9288 95.2414C56.2312 93.2686 55.0072 92.1166 53.0488 92.6062C52.0984 92.851 51.1768 93.2254 50.2552 93.5566C47.5107 94.6329 44.5402 95.0042 41.6152 94.6366L40.8808 94.507C41.0291 94.2628 41.1977 94.0316 41.3848 93.8158C41.9608 93.2254 42.58 92.6926 43.1272 92.0734C43.3182 91.9086 43.4625 91.6966 43.5458 91.4585C43.6291 91.2204 43.6483 90.9646 43.6017 90.7167C43.555 90.4688 43.4441 90.2375 43.2799 90.046C43.1158 89.8545 42.9042 89.7094 42.6664 89.6254C42.3665 89.4833 42.0588 89.3583 41.7448 89.251C38.8648 88.2574 36.0712 87.3214 33.2776 86.2558C30.8549 85.368 28.4804 84.3538 26.164 83.2174C24.7633 82.4409 23.4788 81.4714 22.348 80.3374C21.628 79.6548 21.0764 78.8144 20.7366 77.8823C20.3967 76.9502 20.2779 75.952 20.3896 74.9662C20.3757 74.8033 20.3757 74.6395 20.3896 74.4766C20.3896 74.4766 20.4904 74.3614 20.5768 74.2462C20.8504 74.3758 21.1528 74.5054 21.4264 74.6638C26.7565 77.6635 32.3773 80.1144 38.2024 81.979C38.551 82.0992 38.9143 82.1718 39.2824 82.195C39.5521 82.2206 39.8222 82.1492 40.044 81.9934C40.2657 81.8377 40.4246 81.6079 40.492 81.3454C40.5914 81.1132 40.6039 80.853 40.5272 80.6124C40.4505 80.3718 40.2898 80.1668 40.0744 80.035C39.5892 79.7289 39.0665 79.4869 38.5192 79.315C33.7778 77.7599 29.1812 75.7941 24.7816 73.4398C22.7709 72.375 20.8453 71.157 19.0216 69.7966C17.8134 68.7516 16.7439 67.5563 15.8392 66.2398C15.3355 65.4898 14.9697 64.6559 14.7592 63.7774C14.621 63.3891 14.5738 62.9742 14.6212 62.5647C14.6687 62.1553 14.8095 61.7622 15.0328 61.4158C15.1185 61.2013 15.26 61.0137 15.4426 60.8723C15.6252 60.7309 15.8423 60.6409 16.0713 60.6115C16.3004 60.5821 16.5331 60.6145 16.7455 60.7053C16.9579 60.796 17.1421 60.9419 17.2792 61.1278C22.2786 65.5983 28.1676 68.96 34.5592 70.9918C34.749 71.0711 34.947 71.129 35.1496 71.1646C35.2922 71.2137 35.4433 71.2336 35.5938 71.223C35.7443 71.2125 35.8911 71.1717 36.0255 71.1031C36.1599 71.0346 36.2791 70.9397 36.376 70.8241C36.4729 70.7084 36.5456 70.5745 36.5896 70.4302C36.6853 70.1528 36.6715 69.8493 36.5511 69.5817C36.4307 69.3141 36.2127 69.1025 35.9416 68.9902C35.5714 68.8109 35.1916 68.6523 34.804 68.515C30.7849 67.0809 26.9627 65.1457 23.428 62.755C20.8033 61.0507 18.5141 58.8786 16.6744 56.347C15.9002 55.2401 15.2892 54.0277 14.86 52.747C14.1832 50.6446 15.1624 49.3486 17.38 49.3486C18.6945 49.3708 20.0009 49.5595 21.268 49.9102C23.1256 50.3998 24.9544 51.019 26.7688 51.6814C33.3352 54.0862 40.06 55.9006 46.828 57.643C49.8299 58.3234 52.7505 59.3226 55.54 60.6238C57.2319 61.4441 58.8506 62.4076 60.3784 63.5038C62.096 64.7542 63.5222 66.362 64.5589 68.2165C65.5955 70.0709 66.2179 72.1281 66.3832 74.2462C66.9677 79.5824 66.128 84.9783 63.9496 89.8846C63.126 91.8189 61.8756 93.5419 60.292 94.9246C58.9148 96.0669 57.278 96.8532 55.5256 97.2142C55.6552 96.4798 55.828 95.8174 55.9288 95.2126V95.2414ZM122.745 44.8414C120.455 45.6046 118.238 46.5838 115.962 47.419C108.762 50.0686 101.562 52.6174 94.4776 55.3246C91.5428 56.3776 88.705 57.6833 85.996 59.227C77.5432 64.2526 73.2376 71.6542 74.0152 81.6478C74.321 85.9151 76.1989 89.9173 79.2856 92.8798C81.4986 95.0409 84.1437 96.7094 87.0472 97.7758C87.6975 98.0302 88.3735 98.2136 89.0632 98.323C90.5032 98.5102 91.18 97.9342 91.3528 96.4798C91.3811 96.3177 91.4245 96.1586 91.4824 96.0046L92.2456 96.2638C94.3623 97.0447 96.5769 97.5293 98.8264 97.7038C100.589 97.9199 102.377 97.6665 104.01 96.9694C104.392 96.856 104.732 96.6346 104.991 96.3319C105.249 96.0291 105.414 95.658 105.466 95.2635C105.517 94.8689 105.454 94.4678 105.282 94.1087C105.111 93.7495 104.839 93.4477 104.5 93.2398C104.097 92.9086 103.679 92.6062 103.06 92.1742L105.494 91.627C111.186 90.459 116.264 87.2729 119.793 82.6558C120.762 81.5333 121.501 80.2304 121.965 78.8219C122.43 77.4133 122.612 75.9268 122.5 74.4478C122.506 74.2542 122.552 74.0638 122.633 73.8881C122.715 73.7125 122.831 73.5551 122.975 73.4254C123.767 72.6046 124.66 71.8702 125.452 71.035C126.932 69.5419 128.059 67.7361 128.75 65.7502C129.201 64.5082 129.314 63.1688 129.079 61.8686C128.844 60.5684 128.268 59.3538 127.41 58.3486C127.223 58.1326 127.05 57.9022 126.834 57.6286C127.727 56.5774 128.548 55.6702 129.311 54.7486C130.504 53.384 131.366 51.7628 131.831 50.011C132.074 49.2809 132.131 48.5017 131.997 47.744C131.863 46.9863 131.542 46.2741 131.063 45.672C130.584 45.0699 129.962 44.5969 129.254 44.2959C128.545 43.995 127.773 43.8756 127.007 43.9486C125.555 44.0146 124.12 44.2861 122.745 44.755V44.8414ZM129.196 49.6654C128.719 50.9247 128.054 52.1045 127.223 53.1646C123.976 57.1612 119.961 60.4664 115.415 62.8846C112.744 64.3327 109.967 65.5748 107.106 66.5998C106.639 66.7508 106.19 66.9536 105.767 67.2046C105.511 67.3323 105.311 67.5495 105.205 67.815C105.099 68.0805 105.094 68.3757 105.191 68.6446C105.29 68.9325 105.492 69.1739 105.757 69.3226C106.023 69.4714 106.334 69.5171 106.631 69.451C106.956 69.3952 107.274 69.3084 107.582 69.1918C113.753 67.1399 119.483 63.9451 124.473 59.7742C124.653 59.6341 124.84 59.5043 125.034 59.3854C125.747 59.9861 126.271 60.7803 126.541 61.6722C126.812 62.5641 126.819 63.5154 126.561 64.411C126.143 65.9681 125.346 67.3977 124.242 68.5726C121.849 71.231 118.977 73.4147 115.775 75.0094C112.239 76.7408 108.57 78.1855 104.802 79.3294C104.409 79.4467 104.029 79.601 103.665 79.7902C103.387 79.9301 103.172 80.1683 103.06 80.4584C102.948 80.7485 102.948 81.0697 103.06 81.3598C103.156 81.6482 103.358 81.8892 103.626 82.0337C103.894 82.1782 104.206 82.2152 104.5 82.1374C104.901 82.0488 105.295 81.9334 105.681 81.7918C110.525 80.3658 115.18 78.3643 119.548 75.8302C119.725 75.753 119.908 75.6904 120.095 75.643C120.049 76.175 119.972 76.7039 119.865 77.227C119.396 78.8226 118.586 80.2969 117.489 81.547C114.117 85.5356 109.474 88.241 104.342 89.2078C103.506 89.395 102.657 89.539 101.807 89.7406C101.404 89.8171 101.013 89.9428 100.641 90.115C100.336 90.2222 100.064 90.4071 99.853 90.6513C99.6415 90.8956 99.4974 91.1908 99.4349 91.5078C99.3724 91.8248 99.3936 92.1526 99.4965 92.4588C99.5994 92.7651 99.7804 93.0392 100.022 93.2542C100.611 93.8211 101.231 94.3547 101.879 94.8526C100.739 95.1884 99.5367 95.2574 98.3656 95.0542C95.5828 94.7376 92.8907 93.8712 90.4456 92.5054C90.0555 92.2827 89.6515 92.0855 89.236 91.915C88.974 91.7857 88.6766 91.7467 88.3901 91.804C88.1036 91.8613 87.8441 92.0117 87.652 92.2318C87.488 92.4309 87.3879 92.6748 87.3647 92.9318C87.3416 93.1887 87.3966 93.4466 87.5224 93.6718C87.7672 94.2046 88.0408 94.7374 88.3432 95.371C88.1763 95.3979 88.0061 95.3979 87.8392 95.371C81.892 92.851 77.7592 88.7326 76.7368 82.0798C76.2611 79.0431 76.5145 75.9369 77.476 73.0175C78.4374 70.0981 80.0794 67.4491 82.2664 65.2894C84.5168 62.9353 87.2406 61.085 90.2584 59.8606C94.5784 58.0606 98.8984 56.3614 103.305 54.7054C110.025 52.171 116.745 49.6942 123.465 47.275C124.574 46.8564 125.738 46.5994 126.921 46.5118C127.318 46.4084 127.737 46.4262 128.124 46.5627C128.511 46.6991 128.849 46.9482 129.093 47.2778C129.338 47.6075 129.478 48.0027 129.496 48.4127C129.515 48.8227 129.41 49.2288 129.196 49.579V49.6654Z" fill="#051936"/>
</svg>
