<svg width="220" height="19" viewBox="0 0 220 19" fill="none" xmlns="http://www.w3.org/2000/svg">
<path d="M0.752 18.5C0.344 18.5 0.032 18.188 0.032 17.804V1.676C0.032 1.268 0.32 0.98 0.752 0.98H6.152L6.896 1.028L7.712 1.124L8.552 1.316L9.248 1.532L10.136 1.964L10.88 2.372C10.88 2.372 10.976 2.42 11 2.468C11.192 2.612 11.408 2.804 11.624 2.948L12.32 3.572L12.944 4.244L13.448 4.988L13.904 5.756L14.216 6.404L14.576 7.388L14.744 8.108L14.864 8.924L14.888 9.716L14.864 10.508L14.768 11.372L14.552 12.14L14.312 12.812L13.88 13.844L13.424 14.564L12.92 15.26L12.296 15.956L11.576 16.556L10.88 17.108L10.184 17.516L9.224 17.924L8.552 18.14L7.784 18.356L6.92 18.452L6.152 18.5L4.904 18.476C4.52 18.476 4.208 18.164 4.208 17.78C4.208 17.42 4.52 17.108 4.904 17.108H6.104L6.824 17.06H6.8L7.496 16.964H7.472L8.144 16.796L8.864 16.556L8.84 16.58L9.488 16.244H9.464L10.16 15.884L10.136 15.908C10.328 15.764 10.544 15.572 10.76 15.428H10.736L11.312 14.9C11.456 14.732 11.696 14.516 11.84 14.348V14.372L12.272 13.748L12.248 13.772L12.656 13.1V13.124C12.752 12.884 12.896 12.644 12.992 12.428L12.968 12.452L13.184 11.732L13.352 11.06V11.084L13.448 10.388V10.412C13.448 10.196 13.472 9.932 13.472 9.716L13.424 9.044V9.068L13.328 8.348V8.372L13.184 7.7L12.944 6.98L12.968 7.004L12.656 6.332V6.356L12.248 5.708L12.272 5.732L11.84 5.084V5.108L11.288 4.532L10.736 4.052H10.76C10.544 3.908 10.328 3.716 10.136 3.572L10.16 3.596L9.464 3.212H9.488C9.272 3.14 9.032 2.996 8.792 2.9L8.816 2.924C8.576 2.852 8.36 2.732 8.12 2.66H8.144L7.424 2.516C7.208 2.492 6.968 2.42 6.752 2.396C6.536 2.396 6.296 2.372 6.104 2.372H1.448V17.804C1.448 18.188 1.112 18.5 0.752 18.5ZM30.1314 10.46H23.1474L19.3554 18.044C19.1394 18.356 18.9474 18.5 18.6834 18.5C18.5634 18.5 18.4674 18.452 18.3954 18.428C18.0594 18.26 17.9154 17.9 18.0594 17.516L26.0274 1.604C26.1474 1.388 26.4114 1.244 26.6274 1.244C26.9154 1.244 27.1314 1.412 27.2514 1.604C29.8914 6.812 32.5794 12.284 35.2194 17.516C35.3874 17.924 35.2194 18.284 34.8834 18.428C34.5714 18.596 34.1394 18.452 33.9714 18.116L30.1314 10.46ZM26.6274 3.5L23.8194 9.092H29.4114C28.4754 7.196 27.6114 5.444 26.6274 3.5ZM48.9798 17.108C49.3638 17.108 49.6758 17.42 49.6758 17.804C49.6758 18.188 49.3638 18.5 48.9798 18.5H39.2358C38.8278 18.5 38.5158 18.188 38.5158 17.804V1.7C38.5158 1.316 38.8278 1.004 39.2358 1.004C39.5958 1.004 39.9318 1.316 39.9318 1.7V17.108H48.9798ZM55.6428 17.588L48.1788 10.1C48.0348 9.956 47.9628 9.788 47.9628 9.62C47.9628 9.452 48.0348 9.26 48.1788 9.116L55.6428 1.628C56.2428 1.052 57.0108 0.715999 57.8508 0.715999C58.7148 0.715999 59.4828 1.052 60.0828 1.628L67.5708 9.116C67.8348 9.404 67.8348 9.812 67.5708 10.1L60.0828 17.588C59.4828 18.164 58.7148 18.5 57.8508 18.5C57.0108 18.5 56.2428 18.164 55.6428 17.588ZM56.6268 2.636L49.6428 9.62L56.6268 16.58C56.9388 16.916 57.4188 17.108 57.8508 17.108C58.3308 17.108 58.7628 16.916 59.0988 16.58L66.0588 9.62L59.0988 2.636C58.7628 2.3 58.3308 2.132 57.8508 2.132C57.4188 2.132 56.9388 2.3 56.6268 2.636ZM75.4436 18.5C72.9236 18.5 70.9076 16.484 70.9076 13.988V13.22C70.9076 12.836 71.2196 12.524 71.6036 12.524C71.9876 12.524 72.2996 12.836 72.2996 13.22V13.988C72.2996 15.716 73.7156 17.108 75.4436 17.108H78.5396C80.2676 17.108 81.6596 15.716 81.6596 13.916C81.6596 12.38 80.4836 11.012 79.0196 10.676L74.6996 9.812C72.4916 9.38 70.9076 7.436 70.9076 5.204C70.9076 2.684 72.9236 0.691999 75.4436 0.691999H78.5396C80.9876 0.691999 83.0516 2.684 83.0516 5.204C83.0516 5.612 82.7396 5.9 82.3556 5.9C81.9716 5.9 81.6596 5.612 81.6596 5.204C81.6596 3.476 80.2676 2.06 78.5396 2.06H75.4436C73.7156 2.06 72.2996 3.476 72.2996 5.204C72.2996 6.74 73.4756 8.084 74.9636 8.468L79.2596 9.284C81.4676 9.74 83.0516 11.66 83.0516 13.988C83.0516 16.484 80.9876 18.5 78.5396 18.5H75.4436ZM94.7705 1.22L103.243 9.836C103.459 10.1 103.483 10.58 103.219 10.82C102.955 11.108 102.523 11.084 102.235 10.844L94.9865 3.404V17.804C94.9865 18.188 94.6745 18.5 94.2905 18.5C93.8825 18.5 93.5945 18.188 93.5945 17.804V1.7C93.5945 1.412 93.7625 1.196 94.0025 1.076C94.2905 0.98 94.5785 1.004 94.7705 1.22ZM104.923 1.004C105.283 1.004 105.619 1.316 105.619 1.7V17.804C105.619 18.188 105.283 18.5 104.923 18.5C104.515 18.5 104.203 18.188 104.203 17.804V1.7C104.203 1.316 104.515 1.004 104.923 1.004ZM108.667 18.164L108.643 18.116C108.547 17.948 108.547 17.66 108.691 17.42L108.667 17.444L113.371 9.764L108.667 2.108C108.547 1.892 108.547 1.628 108.667 1.364C108.811 1.172 109.051 1.028 109.291 1.028H118.987C119.371 1.028 119.707 1.34 119.707 1.724C119.707 2.132 119.371 2.42 118.987 2.42H110.539C111.835 4.532 113.083 6.5 114.355 8.636C114.931 8.06 115.387 7.58 115.963 7.028C116.227 6.812 116.707 6.788 116.947 7.028H116.923L119.251 9.332C119.395 9.476 119.467 9.668 119.467 9.812C119.467 10.028 119.395 10.196 119.251 10.34L116.947 12.596C116.851 12.74 116.659 12.836 116.443 12.836C116.251 12.836 116.083 12.764 115.963 12.62L114.283 10.964C113.011 13.1 111.835 14.948 110.539 17.108H118.987C119.371 17.108 119.707 17.42 119.707 17.804C119.707 18.188 119.371 18.5 118.987 18.5H109.291C109.027 18.5 108.787 18.356 108.667 18.164ZM116.443 8.516L115.123 9.812L116.443 11.156L117.787 9.812L116.443 8.516ZM123.378 2.612C122.97 2.612 122.682 2.324 122.682 1.94C122.682 1.556 122.97 1.244 123.378 1.244H135.69C136.074 1.244 136.386 1.556 136.386 1.94C136.386 2.324 136.074 2.612 135.69 2.612H130.218V17.804C130.218 18.212 129.906 18.5 129.546 18.5C129.138 18.5 128.85 18.212 128.85 17.804V2.612H123.378ZM147.74 18.116L139.82 2.084C139.676 1.772 139.82 1.364 140.132 1.172C140.468 1.028 140.876 1.172 141.068 1.484L148.364 16.268L153.188 6.548L150.98 2.084C150.86 1.772 150.98 1.364 151.316 1.172C151.628 1.028 152.06 1.172 152.228 1.484L153.956 4.988L155.66 1.484C155.852 1.172 156.26 1.028 156.596 1.172C156.932 1.364 157.076 1.772 156.908 2.084L154.724 6.548L159.524 16.268L166.844 1.484C167.036 1.172 167.444 1.028 167.756 1.172C168.092 1.364 168.236 1.772 168.092 2.084L160.124 18.164L160.028 18.26L159.884 18.38C159.86 18.404 159.788 18.452 159.74 18.452C159.668 18.5 159.596 18.5 159.524 18.5C159.476 18.5 159.404 18.5 159.284 18.476H159.308L159.14 18.38L158.996 18.26L158.924 18.164L153.932 8.108L148.964 18.164C148.94 18.188 148.964 18.14 148.916 18.212C148.892 18.332 148.82 18.332 148.604 18.452H148.556C148.484 18.5 148.436 18.5 148.364 18.5C148.316 18.5 148.244 18.5 148.196 18.476C148.196 18.476 148.172 18.476 148.124 18.452C148.076 18.452 148.052 18.428 147.956 18.38L147.86 18.284C147.812 18.212 147.788 18.212 147.74 18.116ZM179.487 17.588L172.023 10.1C171.879 9.956 171.807 9.788 171.807 9.62C171.807 9.452 171.879 9.26 172.023 9.116L179.487 1.628C180.087 1.052 180.855 0.715999 181.695 0.715999C182.559 0.715999 183.327 1.052 183.927 1.628L191.415 9.116C191.679 9.404 191.679 9.812 191.415 10.1L183.927 17.588C183.327 18.164 182.559 18.5 181.695 18.5C180.855 18.5 180.087 18.164 179.487 17.588ZM180.471 2.636L173.487 9.62L180.471 16.58C180.783 16.916 181.263 17.108 181.695 17.108C182.175 17.108 182.607 16.916 182.943 16.58L189.903 9.62L182.943 2.636C182.607 2.3 182.175 2.132 181.695 2.132C181.263 2.132 180.783 2.3 180.471 2.636ZM199.455 9.62L205.359 17.372V17.348C205.623 17.636 205.551 18.092 205.287 18.332C205.119 18.428 204.951 18.5 204.807 18.5C204.591 18.5 204.399 18.404 204.255 18.212L197.463 9.332C197.343 9.116 197.319 8.804 197.439 8.516C197.559 8.324 197.775 8.204 198.039 8.204H200.559C202.311 8.204 203.751 6.788 203.751 5.036C203.751 3.26 202.311 1.82 200.559 1.82H196.119V17.804C196.119 18.188 195.783 18.5 195.423 18.5C195.015 18.5 194.703 18.188 194.703 17.804V1.124C194.703 0.74 195.015 0.404 195.423 0.404H200.559C203.103 0.404 205.143 2.468 205.143 5.036C205.143 7.58 203.103 9.62 200.559 9.62H199.455ZM209.158 0.787999C209.518 0.787999 209.854 1.124 209.854 1.484V17.804C209.854 18.188 209.518 18.5 209.158 18.5C208.75 18.5 208.438 18.188 208.438 17.804V1.484C208.438 1.124 208.75 0.787999 209.158 0.787999ZM211.654 9.596L219.382 17.3C219.646 17.588 219.646 18.02 219.382 18.284C219.238 18.428 219.046 18.5 218.878 18.5C218.662 18.5 218.518 18.428 218.374 18.284L210.142 10.076C209.902 9.788 209.902 9.38 210.142 9.092L218.374 0.883999C218.662 0.595999 219.094 0.595999 219.382 0.883999C219.646 1.172 219.646 1.58 219.382 1.868L211.654 9.596Z" fill="#F1F1F1"/>
</svg>
