<svg width="19" height="19" viewBox="0 0 19 19" fill="none" xmlns="http://www.w3.org/2000/svg">
<g clip-path="url(#clip0_496_356)">
<g filter="url(#filter0_f_496_356)">
<circle cx="9.5" cy="9.5" r="9.5" fill="#070706"/>
</g>
<path d="M9.50001 19C7.62108 19 5.78435 18.4428 4.22209 17.399C2.65982 16.3551 1.44218 14.8714 0.723149 13.1355C0.00411617 11.3996 -0.184015 9.48947 0.182544 7.64665C0.549104 5.80383 1.45389 4.11109 2.78249 2.78249C4.11109 1.45389 5.80383 0.549104 7.64665 0.182544C9.48947 -0.184015 11.3996 0.00411617 13.1355 0.723149C14.8714 1.44218 16.3551 2.65982 17.399 4.22209C18.4428 5.78435 19 7.62108 19 9.50001C18.9973 12.0187 17.9955 14.4335 16.2145 16.2145C14.4335 17.9955 12.0187 18.9973 9.50001 19ZM9.50001 0.593754C7.73852 0.593754 6.01658 1.1161 4.55196 2.09473C3.08733 3.07336 1.9458 4.46433 1.2717 6.09173C0.597609 7.71914 0.421236 9.50989 0.764885 11.2375C1.10854 12.9652 1.95677 14.5521 3.20233 15.7977C4.4479 17.0432 6.03484 17.8915 7.76248 18.2351C9.49013 18.5788 11.2809 18.4024 12.9083 17.7283C14.5357 17.0542 15.9267 15.9127 16.9053 14.4481C17.8839 12.9834 18.4063 11.2615 18.4063 9.50001C18.4035 7.13876 17.4643 4.87502 15.7946 3.20537C14.125 1.53572 11.8612 0.596504 9.50001 0.593754Z" fill="#BBB4AB"/>
<path d="M14.1016 6.53125H4.89844C4.8197 6.53125 4.74419 6.49997 4.68852 6.4443C4.63284 6.38862 4.60156 6.31311 4.60156 6.23438C4.60156 6.15564 4.63284 6.08013 4.68852 6.02445C4.74419 5.96878 4.8197 5.9375 4.89844 5.9375H14.1016C14.1803 5.9375 14.2558 5.96878 14.3115 6.02445C14.3672 6.08013 14.3984 6.15564 14.3984 6.23438C14.3984 6.31311 14.3672 6.38862 14.3115 6.4443C14.2558 6.49997 14.1803 6.53125 14.1016 6.53125ZM14.1016 9.79688H4.89844C4.8197 9.79688 4.74419 9.7656 4.68852 9.70992C4.63284 9.65425 4.60156 9.57874 4.60156 9.5C4.60156 9.42126 4.63284 9.34575 4.68852 9.29008C4.74419 9.2344 4.8197 9.20312 4.89844 9.20312H14.1016C14.1803 9.20312 14.2558 9.2344 14.3115 9.29008C14.3672 9.34575 14.3984 9.42126 14.3984 9.5C14.3984 9.57874 14.3672 9.65425 14.3115 9.70992C14.2558 9.7656 14.1803 9.79688 14.1016 9.79688ZM14.1016 13.0625H4.89844C4.8197 13.0625 4.74419 13.0312 4.68852 12.9755C4.63284 12.9199 4.60156 12.8444 4.60156 12.7656C4.60156 12.6869 4.63284 12.6114 4.68852 12.5557C4.74419 12.5 4.8197 12.4688 4.89844 12.4688H14.1016C14.1803 12.4688 14.2558 12.5 14.3115 12.5557C14.3672 12.6114 14.3984 12.6869 14.3984 12.7656C14.3984 12.8444 14.3672 12.9199 14.3115 12.9755C14.2558 13.0312 14.1803 13.0625 14.1016 13.0625Z" fill="#BBB4AB"/>
</g>
<defs>
<filter id="filter0_f_496_356" x="-13.6" y="-13.6" width="46.2" height="46.2" filterUnits="userSpaceOnUse" color-interpolation-filters="sRGB">
<feFlood flood-opacity="0" result="BackgroundImageFix"/>
<feBlend mode="normal" in="SourceGraphic" in2="BackgroundImageFix" result="shape"/>
<feGaussianBlur stdDeviation="6.8" result="effect1_foregroundBlur_496_356"/>
</filter>
<clipPath id="clip0_496_356">
<rect width="19" height="19" fill="white"/>
</clipPath>
</defs>
</svg>
